<svg xmlns="http://www.w3.org/2000/svg" xmlns:xlink="http://www.w3.org/1999/xlink" width="18.197" height="29.115" viewBox="0 0 18.197 29.115">
  <defs>
    <clipPath id="clip-path">
      <rect id="Rectangle_5" data-name="Rectangle 5" width="18.197" height="29.115" fill="#fff"/>
    </clipPath>
  </defs>
  <g id="Group_10" data-name="Group 10" opacity="0.25">
    <g id="Group_9" data-name="Group 9" clip-path="url(#clip-path)">
      <path id="Path_18" data-name="Path 18" d="M9.1,0A9.156,9.156,0,0,0,0,9.193V19.921a9.156,9.156,0,0,0,9.1,9.193,9.156,9.156,0,0,0,9.1-9.193V9.193A9.156,9.156,0,0,0,9.1,0m7.279,20.231v-.31A7.325,7.325,0,0,1,9.1,27.276,7.325,7.325,0,0,1,1.82,19.921V9.193A7.325,7.325,0,0,1,9.1,1.839a7.325,7.325,0,0,1,7.279,7.354V20.231Z" fill="#fff"/>
      <path id="Path_19" data-name="Path 19" d="M106.473,118.179a1.137,1.137,0,0,1-1.137-1.137v-3.184a1.137,1.137,0,0,1,2.275,0v3.184a1.137,1.137,0,0,1-1.137,1.137" transform="translate(-97.375 -104.201)" fill="#fff"/>
    </g>
  </g>
</svg>
